<?xml version="1.0" encoding="UTF-8" standalone="no"?>
<!-- Created with Inkscape (http://www.inkscape.org/) -->

<svg
   width="210mm"
   height="297mm"
   viewBox="0 0 210 297"
   version="1.1"
   id="svg1"
   inkscape:version="1.4 (86a8ad7, 2024-10-11)"
   sodipodi:docname="icon5.svg"
   xml:space="preserve"
   inkscape:export-filename="C:\Users\dalex\Downloads\icon5.png"
   inkscape:export-xdpi="115.77125"
   inkscape:export-ydpi="115.77125"
   xmlns:inkscape="http://www.inkscape.org/namespaces/inkscape"
   xmlns:sodipodi="http://sodipodi.sourceforge.net/DTD/sodipodi-0.dtd"
   xmlns="http://www.w3.org/2000/svg"
   xmlns:svg="http://www.w3.org/2000/svg"><sodipodi:namedview
     id="namedview1"
     pagecolor="#ffffff"
     bordercolor="#000000"
     borderopacity="0.25"
     inkscape:showpageshadow="2"
     inkscape:pageopacity="0.0"
     inkscape:pagecheckerboard="true"
     inkscape:deskcolor="#d1d1d1"
     inkscape:document-units="mm"
     inkscape:zoom="1.9729351"
     inkscape:cx="337.06126"
     inkscape:cy="448.82368"
     inkscape:window-width="1920"
     inkscape:window-height="1001"
     inkscape:window-x="-9"
     inkscape:window-y="-9"
     inkscape:window-maximized="1"
     inkscape:current-layer="layer1" /><defs
     id="defs1" /><g
     inkscape:label="Layer 1"
     inkscape:groupmode="layer"
     id="layer1"><rect
       style="fill:#ffffff;stroke:#ffffff;stroke-width:0"
       id="rect1"
       width="92.956001"
       height="92.955513"
       x="59.049778"
       y="70.773354"
       inkscape:export-filename="C:\Users\dalex\Downloads\icon5.png"
       inkscape:export-xdpi="115.77125"
       inkscape:export-ydpi="115.77125" /><path
       style="fill:#000000;fill-opacity:0;stroke:#000000;stroke-width:20;stroke-linecap:round;stroke-linejoin:round;stroke-dasharray:none;stroke-opacity:1"
       d="m 102.25956,105.40272 c 0.74649,12.0973 4.06334,14.74883 7.17617,19.08781 l -0.0916,0.0245 v 0 0"
       id="path6"
       sodipodi:nodetypes="ccccc" /><g
       id="g6"
       transform="matrix(0.97560975,0,0,0.97560975,-1.8885316,4.5739576)"><circle
         style="fill:#ffffff;fill-opacity:1;stroke:#ffffff;stroke-width:0"
         id="circle2"
         cx="105.25723"
         cy="84.601952"
         r="15.551723" /><circle
         style="fill:#000000;stroke:#ffffff;stroke-width:0"
         id="path1"
         cx="105.25723"
         cy="84.601952"
         r="12.826163" /></g><path
       style="fill:#000000;fill-opacity:0;stroke:#000000;stroke-width:9;stroke-linecap:round;stroke-linejoin:round;stroke-dasharray:none;stroke-opacity:1"
       d="m 113.03709,102.47236 17.33833,-5.321018 1.74618,-19.940749"
       id="path2"
       sodipodi:nodetypes="ccc" /><path
       style="fill:#000000;fill-opacity:0;stroke:#000000;stroke-width:8;stroke-linecap:round;stroke-linejoin:round;stroke-dasharray:none;stroke-opacity:1"
       d="m 91.661614,103.93562 -14.211812,7.59293 2.52222,14.73085"
       id="path3"
       sodipodi:nodetypes="ccc" /><path
       style="fill:#000000;fill-opacity:0;stroke:#000000;stroke-width:10;stroke-linecap:round;stroke-linejoin:round;stroke-dasharray:none;stroke-opacity:1"
       d="m 114.15726,122.63305 11.14899,15.09502 -8.06594,18.83813"
       id="path4"
       sodipodi:nodetypes="ccc" /><path
       style="fill:#000000;fill-opacity:0;stroke:#000000;stroke-width:10;stroke-linecap:round;stroke-linejoin:round;stroke-dasharray:none;stroke-opacity:1"
       d="M 106.18552,125.27957 99.16827,139.5037 86.271723,156.09853"
       id="path5"
       sodipodi:nodetypes="ccc" /><ellipse
       style="fill:#ffffff;fill-opacity:1;stroke:#000000;stroke-width:0;stroke-linecap:round;stroke-linejoin:round;stroke-dasharray:none;stroke-opacity:1"
       id="path7"
       cx="72.850769"
       cy="159.21953"
       rx="4.5073314"
       ry="3.5920489"
       transform="matrix(0.965913,-0.25886692,0.25877119,0.96593865,0,0)" /><path
       style="fill:#ffffff;fill-opacity:0;stroke:#000000;stroke-width:1.01049;stroke-linecap:round;stroke-linejoin:round;stroke-dasharray:none;stroke-opacity:1"
       d="m 132.50378,103.42864 c 4.46492,-1.45905 4.51684,-5.703568 4.51684,-5.703568"
       id="path8" /><path
       style="fill:#ffffff;fill-opacity:0;stroke:#000000;stroke-width:1.01049;stroke-linecap:round;stroke-linejoin:round;stroke-dasharray:none;stroke-opacity:1"
       d="m 74.574481,127.79375 c 0.765075,3.30019 3.725061,3.73057 3.725061,3.73057"
       id="path9"
       sodipodi:nodetypes="cc" /><path
       style="fill:#000000;fill-opacity:0.992042;stroke:#000000;stroke-width:0;stroke-linecap:round;stroke-linejoin:round;stroke-dasharray:none;stroke-opacity:1"
       d="m 129.26572,121.71507 c -0.30656,-0.11302 -0.80395,-0.36768 -1.07778,-0.55185 -0.66818,-0.44943 -1.20927,-1.20233 -1.33811,-1.86198 -0.086,-0.44041 -0.0789,-0.66204 0.0349,-1.09212 0.40867,-1.54253 2.26222,-2.57739 4.45852,-2.48858 0.42437,0.0172 1.49569,0.2666 1.85584,0.43209 0.41171,0.18921 0.8163,0.43302 1.09434,0.65951 0.28829,0.23482 0.42308,0.25767 0.63738,0.10809 l 0.14593,-0.10189 1.56986,-5.90976 c 1.09841,-4.13493 1.59169,-5.93761 1.64272,-6.00245 0.26579,-0.33786 0.76448,-0.322 0.98387,0.0312 0.0492,0.0793 0.14917,0.36209 0.2221,0.6285 0.38145,1.39331 0.70886,1.99007 1.72952,3.15234 0.95377,1.08611 1.37027,2.00701 1.44044,3.18484 0.0616,1.03342 -0.27564,2.02853 -0.95998,2.83303 -0.26606,0.31277 -0.44457,0.39165 -0.71995,0.31813 -0.14272,-0.0382 -0.18749,-0.0746 -0.24706,-0.20201 -0.0856,-0.18281 -0.0788,-0.27067 0.0725,-0.94427 0.0628,-0.27942 0.11479,-0.62905 0.11555,-0.77697 0.003,-0.63556 -0.26192,-1.38149 -0.62018,-1.74442 -0.20465,-0.20733 -0.57577,-0.43877 -0.79986,-0.49881 -0.25449,-0.0682 -0.72857,-0.0409 -1.01088,0.0582 -0.33705,0.11833 -0.73856,0.44121 -0.93283,0.75012 -0.15543,0.24717 -0.18484,0.34846 -1.18807,4.09129 -0.66412,2.47786 -1.07014,3.93013 -1.14561,4.09828 -0.58282,1.29833 -2.03364,2.10162 -3.87033,2.14293 -0.62534,0.0141 -1.60052,-0.13202 -2.09293,-0.31354 z"
       id="path24" /><path
       style="fill:#000000;fill-opacity:0.992042;stroke:#000000;stroke-width:0;stroke-linecap:round;stroke-linejoin:round;stroke-dasharray:none;stroke-opacity:1"
       d="m 68.23136,98.0128 c -0.955611,-0.04711 -1.564589,-0.351246 -1.904583,-0.951163 -0.449743,-0.793568 -0.104099,-1.959407 0.814029,-2.745686 0.529787,-0.453705 1.035008,-0.682249 1.826954,-0.826447 0.360621,-0.06569 0.785106,-0.149675 0.943285,-0.18669 l 0.287597,-0.06731 -1.291947,-4.964206 -1.291946,-4.964206 0.09957,-0.266317 c 0.147451,-0.394371 0.469161,-0.590536 1.868851,-1.139547 0.696215,-0.273081 1.590225,-0.633288 1.98669,-0.800461 0.653433,-0.275525 1.451866,-0.605583 3.680208,-1.521332 0.416418,-0.171123 1.16514,-0.46084 1.663831,-0.643804 1.056101,-0.387474 1.263356,-0.386023 1.613864,0.0113 0.197628,0.224025 0.277502,0.49817 1.792319,6.151543 l 1.585474,5.917068 -0.07823,0.326596 c -0.08113,0.33866 -0.481072,1.048845 -0.741965,1.31751 -0.08235,0.08478 -0.321279,0.283804 -0.530974,0.442239 -0.336117,0.253958 -0.490999,0.317475 -1.308032,0.536398 -0.865901,0.232017 -0.953711,0.242179 -1.336901,0.15494 -0.543268,-0.123711 -1.130085,-0.501816 -1.339119,-0.862844 -0.607479,-1.049192 0.05743,-2.53377 1.486994,-3.320083 0.557949,-0.306893 1.056714,-0.439272 1.717193,-0.455785 0.413283,-0.01032 0.539006,-0.03665 0.589144,-0.123359 0.08579,-0.148388 -0.926339,-4.117782 -1.09615,-4.298901 -0.133526,-0.142417 -0.340659,-0.101839 -1.104773,0.216427 -0.560979,0.233657 -1.217821,0.498792 -4.501858,1.817171 -3.152589,1.26561 -3.500422,1.411541 -3.619528,1.51855 -0.09558,0.08587 -0.02966,0.380308 0.776336,3.467646 l 0.880787,3.373805 -0.09882,0.408525 c -0.122986,0.508426 -0.161878,0.591897 -0.474129,1.017702 -0.654501,0.89253 -1.879378,1.510726 -2.894172,1.460685 z m 3.878588,-12.044787 c 1.194049,-0.484148 3.13378,-1.265095 4.310514,-1.73544 1.176734,-0.470344 2.204134,-0.902742 2.283111,-0.960884 0.285801,-0.210404 -0.07839,-0.854927 -0.540187,-0.95599 -0.277291,-0.06068 -0.548076,0.0028 -1.239595,0.290465 -0.677345,0.281804 -1.912556,0.783658 -3.327569,1.351961 -0.645006,0.25905 -1.513494,0.610825 -1.929972,0.781723 -0.416478,0.170902 -0.976162,0.391928 -1.243741,0.491178 -0.593405,0.220102 -0.882397,0.452652 -0.981451,0.789753 -0.131464,0.447402 0.08998,0.937375 0.387432,0.857253 0.06076,-0.01637 1.087409,-0.425874 2.281457,-0.910022 z"
       id="path25" /><path
       style="fill:#000000;fill-opacity:1;stroke:#000000;stroke-width:0;stroke-linecap:round;stroke-linejoin:round;stroke-dasharray:none;stroke-opacity:1"
       d="m 253.67899,369.56885 c -4.00542,-1.81963 -4.89657,-6.46202 -2.06252,-10.74457 1.83178,-2.76799 4.71679,-4.51573 9.22864,-5.59067 2.12107,-0.50534 3.93551,-0.99782 4.03209,-1.09441 0.0966,-0.0966 -1.99786,-8.56459 -4.65432,-18.8178 -4.55934,-17.5978 -4.78527,-18.71034 -4.03286,-19.85866 1.05443,-1.60927 1.84388,-1.99011 16.96856,-8.18578 22.25226,-9.11541 22.58285,-9.2027 24.04706,-6.3495 0.39134,0.76259 1.88753,5.72017 3.32486,11.01684 1.43733,5.29668 2.73326,10.02948 2.87985,10.51733 0.21841,0.72686 -0.0545,0.887 -1.51172,0.887 -0.97804,0 -1.91922,-0.22808 -2.09151,-0.50686 -0.17229,-0.27877 -0.76297,-0.50686 -1.31262,-0.50686 -1.19324,0 -32.37212,12.53141 -33.27124,13.37237 -0.49082,0.45907 0.0742,3.29127 2.64262,13.24656 3.74337,14.50937 3.74553,14.90096 0.10393,18.8677 -3.95972,4.31325 -9.72012,5.82374 -14.29082,3.74731 z m 43.21369,-54.65234 c 1.64038,-0.68741 -0.17805,-3.70506 -2.23266,-3.70506 -0.65371,0 -6.14945,2.01377 -12.21278,4.47504 -6.06332,2.46127 -12.28526,4.97623 -13.82653,5.5888 -4.64765,1.8472 -6.06773,2.90651 -6.06773,4.52625 0,0.78466 0.24804,1.67469 0.55119,1.97784 0.39701,0.39701 5.11114,-1.28777 16.85306,-6.02309 8.96603,-3.61586 16.58699,-6.69376 16.93545,-6.83978 z"
       id="path26"
       transform="scale(0.26458333)" /><path
       style="fill:#000000;fill-opacity:1;stroke:#000000;stroke-width:0;stroke-linecap:round;stroke-linejoin:round;stroke-dasharray:none;stroke-opacity:1"
       d="m 490.09688,460.58077 c -7.49924,-2.12593 -12.2424,-8.23024 -10.63163,-13.68258 1.23612,-4.18416 4.27722,-6.94477 9.58297,-8.69912 4.06083,-1.34271 10.46291,-0.92057 14.6356,0.96505 1.73828,0.78552 3.41983,1.74069 3.73679,2.12259 0.88025,1.06064 2.44346,0.82787 2.99559,-0.44606 0.27184,-0.62724 2.79762,-9.80772 5.61284,-20.40108 2.81522,-10.59335 5.49601,-20.40107 5.95732,-21.79493 0.79385,-2.39868 0.93368,-2.5343 2.61275,-2.5343 1.75486,0 1.78795,0.041 3.06644,3.80144 1.68944,4.96914 2.29975,6.04964 6.21714,11.00675 4.17998,5.28941 5.16634,7.79389 5.14712,13.06906 -0.0123,3.36934 -0.23866,4.48333 -1.33907,6.58916 -1.64978,3.15715 -3.03359,4.43851 -4.55994,4.22232 -1.27234,-0.1802 -1.23751,0.0991 -0.91067,-7.30148 0.20996,-4.75399 -2.6226,-8.32137 -6.60731,-8.32137 -2.00916,0 -4.73574,1.46835 -5.54929,2.98849 -0.29997,0.5605 -2.35406,7.62909 -4.56463,15.70798 -2.21058,8.07889 -4.36297,15.35359 -4.78308,16.166 -1.04207,2.01515 -4.09073,4.60502 -6.86574,5.83254 -2.89157,1.27908 -10.38113,1.66547 -13.7532,0.70954 z"
       id="path27"
       transform="scale(0.26458333)" /><path
       style="fill:#000000;fill-opacity:1;stroke:#000000;stroke-width:0;stroke-linecap:round;stroke-linejoin:round;stroke-dasharray:none;stroke-opacity:1"
       d="m 292.45714,353.81784 c -3.75338,-1.98545 -4.84534,-4.90882 -3.32277,-8.89563 1.59789,-4.18401 6.34297,-7.36366 12.1221,-8.12295 2.45723,-0.32285 2.46224,-0.32741 2.11492,-1.93153 -0.19148,-0.88435 -0.47683,-2.4801 -0.63411,-3.5461 l -0.28596,-1.93819 1.71423,0.16418 1.71423,0.16419 1.92048,7.09602 c 2.28816,8.45462 2.15698,9.58189 -1.56094,13.41387 -1.91206,1.97071 -3.05736,2.65862 -5.85201,3.51494 -4.20945,1.28983 -5.61806,1.30425 -7.93017,0.0812 z"
       id="path28"
       transform="scale(0.26458333)" /><path
       style="fill:#000000;fill-opacity:1;stroke:#000000;stroke-width:0;stroke-linecap:round;stroke-linejoin:round;stroke-dasharray:none;stroke-opacity:1"
       d="m 301.37613,326.49559 c -0.14565,-0.23567 -0.41635,-1.3761 -0.60155,-2.53429 -0.33512,-2.09574 -0.32909,-2.10581 1.26117,-2.10581 1.65382,0 1.99568,0.45264 2.7754,3.67473 0.31871,1.317 0.2406,1.39386 -1.41644,1.39386 -0.96457,0 -1.87292,-0.19282 -2.01858,-0.42849 z"
       id="path29"
       transform="scale(0.26458333)" /><path
       style="fill:#000000;fill-opacity:1;stroke:#000000;stroke-width:0;stroke-linecap:round;stroke-linejoin:round;stroke-dasharray:none;stroke-opacity:1"
       d="m 253.312,369.47045 c -5.62871,-2.97191 -3.95582,-11.35489 2.96172,-14.84138 0.86737,-0.43716 3.09122,-1.17519 4.94187,-1.64006 1.85066,-0.46487 3.36483,-1.07572 3.36483,-1.35745 0,-0.28173 -2.06016,-8.62815 -4.57813,-18.54761 -5.24144,-20.64847 -5.21736,-19.9951 -0.81309,-22.0605 4.33875,-2.03468 27.15571,-11.28666 31.61761,-12.82052 6.19645,-2.13016 5.9379,-2.44951 9.95616,12.29756 3.8691,14.19967 3.70294,12.87558 1.61576,12.87558 -1.41183,0 -1.89014,-0.2732 -2.44038,-1.39386 -0.51102,-1.04079 -0.99949,-1.35776 -1.92838,-1.25134 -1.39635,0.15998 -26.76737,10.22194 -30.53462,12.10981 -2.89822,1.45237 -2.98178,0.0614 0.94892,15.79698 2.92448,11.70741 2.9815,12.79982 0.82445,15.79399 -1.73049,2.40208 -2.94759,3.39533 -5.93545,4.84381 -3.20173,1.55216 -7.28022,1.63168 -10.00127,0.19499 z m 27.41968,-48.18551 c 8.54009,-3.38031 15.8348,-6.43287 16.21048,-6.78347 0.51945,-0.48478 0.54993,-0.8862 0.12726,-1.67598 -1.24526,-2.32678 -1.96821,-2.13258 -21.39836,5.74804 -5.96047,2.41749 -11.35041,4.86892 -11.97764,5.44763 -1.75522,1.61941 -1.48055,3.40978 0.52311,3.40978 0.54325,0 7.97507,-2.7657 16.51515,-6.146 z"
       id="path30"
       transform="scale(0.26458333)" /></g></svg>
